<?xml version="1.0" encoding="UTF-8"?><svg id="Layer_1" xmlns="http://www.w3.org/2000/svg" viewBox="0 0 332 363"><defs><style>.cls-1{fill:#fff;}</style></defs><path class="cls-1" d="M172.99,221.6c0-17.28,19.73-20.5,27.33-22.43v19.6c-2.32,5.8-8.12,16.25-17.15,16.25-7.48,0-10.19-7.35-10.19-13.41m27.33-29.27v4c-10.7,1.81-37.26,7.22-37.26,27.08,0,10.19,6.83,17.02,16.5,17.02,12.89,0,19.47-12.12,20.76-16.5v14.96h1.8l15.86-3.87v-2.32l-8.25-1.03v-40.1c0-14.44-7.61-20.37-20.89-20.37s-21.79,6.45-24.88,10.57l5.67,15.21h2.96c-1.03-2.58-1.42-5.16-1.42-7.35,0-9.02,6.96-14.18,15.21-14.18s13.92,5.29,13.92,16.89m-72.64,47.96c15.34,0,24.37-10.7,28.62-24.11h-2.45c-5.29,12.76-13.15,19.6-24.24,19.6-12.63,0-22.95-13.15-22.95-32.23s9.67-27.85,21.66-27.85c9.41,0,14.57,5.67,14.57,15.09,0,3.61-.77,7.86-2.45,12.51h2.45l8.12-22.05c-3.22-4.38-10.83-10.06-22.3-10.06-19.21,0-31.33,15.6-31.33,34.68s11.99,34.42,30.3,34.42m-55.95-89.61c0,4,2.96,6.96,6.96,6.96s6.96-2.96,6.96-6.96-2.84-7.09-6.96-7.09-6.96,3.09-6.96,7.09m-4.77,88.19h26.17v-1.55l-8.38-2.84v-61.37h-1.8l-15.99,3.35v1.55l8.38,1.68v54.8l-8.38,2.84v1.55Zm-19.57,1.42c7.22,0,13.8-4.38,16.89-12.76h-2.84c-2.71,6.83-6.58,8.38-9.67,8.38-5.29,0-8.25-4.38-8.25-14.05v-44.22h15.99v-4.51h-15.99v-21.92h-3.22l-4.9,21.92-10.96,2.19v2.32h9.8v43.84c0,12.76,4.77,18.82,13.15,18.82"/><path class="cls-1" d="M197,48.6h1.68c9.93-8.12,19.86-17.79,19.86-21.79,0-1.42-1.29-2.45-2.97-2.45-3.87,0-10.19,6.96-18.57,24.24m-16.63,31.07c1.16-12.51,9.03-21.92,19.73-21.92s16.12,8.77,16.12,21.92h-35.84Zm20.37,42.55c15.21,0,25.4-10.44,29.78-24.11h-2.45c-5.29,12.63-13.67,19.6-23.6,19.6-14.31,0-24.5-13.93-24.5-32.49v-1.29h46.16v-3.09c0-17.54-10.83-27.72-25.4-27.72-17.53,0-29.91,15.34-29.91,34.81,0,18.31,10.96,34.3,29.91,34.3m-90.92-37c0-15.34,8.64-27.59,21.27-27.59,13.92,0,21.66,15.08,21.66,30.82s-8.25,29.27-19.21,29.27c-14.31,0-23.72-16.25-23.72-32.49m22.05,37c22.18,0,30.82-21.14,30.82-35.58s-7.99-33.52-30.43-33.52-31.72,19.47-31.72,34.3,9.8,34.81,31.33,34.81M48.93,69.23V27.71h15.99c13.8,0,24.24,5.03,24.24,19.85s-9.41,21.66-24.24,21.66h-15.99Zm-20.63,51.57h30.3v-1.55l-9.67-4.13v-41h17.15c17.41,0,34.17-9.67,34.17-26.69s-16.24-24.63-32.1-24.63H28.3v1.55l9.67,4V115.13l-9.67,4.13v1.55Z"/></svg>