<?xml version="1.0" encoding="UTF-8"?><svg id="Layer_1" xmlns="http://www.w3.org/2000/svg" viewBox="0 0 332 363"><defs><style>.cls-1{fill:#fff;}</style></defs><path class="cls-1" d="M206.13,326.21c0-17.28,19.73-20.5,27.33-22.43v19.6c-2.32,5.8-8.12,16.25-17.15,16.25-7.48,0-10.18-7.35-10.18-13.41m27.33-29.27v4c-10.7,1.8-37.26,7.22-37.26,27.08,0,10.19,6.83,17.02,16.5,17.02,12.89,0,19.47-12.12,20.76-16.5v14.96h1.81l15.86-3.87v-2.32l-8.25-1.03v-40.1c0-14.44-7.61-20.37-20.89-20.37s-21.79,6.45-24.88,10.57l5.67,15.21h2.97c-1.03-2.58-1.42-5.16-1.42-7.35,0-9.02,6.96-14.18,15.21-14.18s13.92,5.29,13.92,16.89m-64.01-41.64c0,4,2.97,6.96,6.96,6.96s6.96-2.96,6.96-6.96-2.84-7.09-6.96-7.09-6.96,3.09-6.96,7.09m-4.77,88.19h26.17v-1.55l-8.38-2.84v-61.37h-1.8l-15.99,3.35v1.55l8.38,1.68v54.8l-8.38,2.84v1.55Zm-51.54,0h26.17v-1.55l-8.38-2.84v-33.26c2.19-10.7,7.48-23.34,14.57-23.34,4.13,0,6.06,3.61,6.06,9.28,0,3.74-.9,7.99-2.06,12.64h2.19l7.48-20.5c-1.55-2.45-4.77-8.12-11.48-8.12-9.41,0-14.44,11.22-16.63,18.69h-.13v-16.76h-1.29l-16.5,3.35v1.55l8.38,1.68v54.8l-8.38,2.84v1.55Zm-39.38-72.2h1.68c9.93-8.12,19.86-17.79,19.86-21.79,0-1.42-1.29-2.45-2.97-2.45-3.87,0-10.19,6.96-18.57,24.24m-11.73,54.93c0-17.28,19.73-20.5,27.33-22.43v19.6c-2.32,5.8-8.12,16.25-17.15,16.25-7.48,0-10.19-7.35-10.19-13.41m27.33-29.27v4c-10.7,1.8-37.26,7.22-37.26,27.08,0,10.19,6.83,17.02,16.5,17.02,12.89,0,19.47-12.12,20.76-16.5v14.96h1.81l15.86-3.87v-2.32l-8.25-1.03v-40.1c0-14.44-7.61-20.37-20.89-20.37s-21.79,6.45-24.88,10.57l5.67,15.21h2.97c-1.03-2.58-1.42-5.16-1.42-7.35,0-9.02,6.96-14.18,15.21-14.18s13.93,5.29,13.93,16.89m-60.71,47.96c7.22,0,13.8-4.38,16.89-12.76h-2.84c-2.71,6.83-6.58,8.38-9.67,8.38-5.29,0-8.25-4.38-8.25-14.05v-44.22h15.99v-4.51h-15.99v-21.92h-3.22l-4.9,21.92-10.96,2.19v2.32H15.49v43.84c0,12.76,4.77,18.82,13.15,18.82"/><path class="cls-1" d="M173.98,225.41h25.66v-1.55l-7.86-2.84v-41.9c2.45-8.12,8.51-16.37,17.66-16.37,6.96,0,11.86,4.9,11.86,19.21v39.07l-7.74,2.84v1.55h25.53v-1.55l-8.38-2.84v-43.97c0-14.05-7.74-19.34-17.28-19.34-12.76,0-19.21,9.67-21.66,15.09v-13.15h-1.81l-15.99,3.35v1.55l8.38,1.68v54.8l-8.38,2.84v1.55Zm-52.58-41.13c1.16-12.51,9.03-21.92,19.73-21.92s16.12,8.77,16.12,21.92h-35.84Zm20.37,42.55c15.21,0,25.4-10.44,29.78-24.11h-2.45c-5.29,12.63-13.67,19.6-23.6,19.6-14.31,0-24.5-13.93-24.5-32.49v-1.29h46.16v-3.09c0-17.54-10.83-27.72-25.4-27.72-17.54,0-29.91,15.34-29.91,34.81,0,18.31,10.96,34.3,29.91,34.3m-134.14-1.42h25.66v-1.55l-7.87-2.84v-41.9c2.58-8.25,9.54-16.37,17.41-16.37,6.06,0,9.93,4.77,9.93,19.21v39.07l-7.86,2.84v1.55h25.53v-1.55l-8.38-2.84v-42.93c3.74-8.51,9.93-15.34,17.53-15.34,6.32,0,10.44,4.77,10.44,19.21v39.07l-7.74,2.84v1.55h25.4v-1.55l-8.38-2.84v-43.97c0-14.05-7.86-19.34-16.5-19.34-10.83,0-17.41,8.12-20.89,15.09-1.55-10.57-7.86-15.09-15.86-15.09-11.48,0-18.44,9.93-20.63,14.96v-13.02h-1.8l-15.99,3.35v1.55l8.38,1.55v54.92l-8.38,2.84v1.55Z"/><path class="cls-1" d="M289.12,109c10.57,0,16.89-6.83,20.11-14.18v12.51h1.8l15.86-3.35v-1.55l-8.38-1.68V41.57h-1.8l-15.86,3.35v1.55l8.38,1.68v40.36c-3.61,9.15-8.77,15.47-17.02,15.47-5.8,0-10.18-3.48-10.18-17.54V41.57h-1.8l-15.86,3.35v1.55l8.38,1.68v40.23c0,15.86,7.22,20.63,16.37,20.63m-75.9-1.68h26.17v-1.55l-8.38-2.84v-33.26c2.19-10.7,7.48-23.34,14.57-23.34,4.13,0,6.06,3.61,6.06,9.28,0,3.74-.9,7.99-2.06,12.64h2.19l7.48-20.5c-1.55-2.45-4.77-8.12-11.48-8.12-9.41,0-14.44,11.22-16.63,18.7h-.13v-16.76h-1.29l-16.5,3.35v1.55l8.38,1.68v54.8l-8.38,2.84v1.55Zm-77.45-62.92c1.29-.39,2.58-.52,3.61-.52,8.12,0,14.83,6.71,14.83,12.89,0,3.74-2.19,5.42-4.9,5.42-5.93,0-12.25-8.64-13.54-17.79m4.51,64.34c12.64,0,22.95-6.58,22.95-21.14s-9.54-15.99-21.53-19.73c-11.09-3.35-16.63-6.32-16.63-12.76,0-5.93,4.26-9.03,8.25-10.31,1.81,10.18,8.64,19.47,15.73,19.47,5.16,0,8.77-4.64,11.6-15.47-3.74-4.51-10.7-9.16-20.24-9.16-2.06,0-3.48,.13-5.03,.39-.52-17.02,11.47-30.04,29.91-30.04,11.48,0,19.86,5.03,19.86,18.05,0,9.93-5.54,14.18-14.96,15.47v2.58h9.8v43.84c0,12.64,4.77,18.82,13.28,18.82,7.22,0,13.67-4.38,16.76-12.76h-2.84c-2.71,6.83-6.7,8.38-9.8,8.38-5.29,0-8.12-4.51-8.12-14.05V46.09h15.99v-4.51h-15.99v-12.51c0-15.34-10.44-22.43-23.98-22.43-18.69,0-32.75,14.05-32.36,33.78-7.87,2.06-13.28,8.38-13.28,17.66,0,12.12,9.54,17.28,18.05,19.85,12.63,3.87,19.98,6.19,19.98,13.67,0,6.71-5.8,12.77-17.28,12.77-10.06,0-15.73-5.03-15.73-14.83,0-2.45,.39-5.16,1.29-7.99h-2.97l-5.67,16.25c3.61,5.54,11.6,10.96,22.95,10.96m-92.88-1.42h25.66v-1.55l-7.87-2.84V61.04c2.45-8.12,8.51-16.37,17.66-16.37,6.96,0,11.86,4.9,11.86,19.21v39.07l-7.74,2.84v1.55h25.53v-1.55l-8.38-2.84V58.98c0-14.05-7.74-19.34-17.28-19.34-12.76,0-19.21,9.67-21.66,15.09v-13.15h-1.81l-15.99,3.35v1.55l8.38,1.68v54.8l-8.38,2.84v1.55Zm-37.84,0h30.3v-1.55l-9.67-4.13V14.88l9.67-4v-1.55H9.56v1.55l9.67,4V101.66l-9.67,4.13v1.55Z"/></svg>